# xmcd
#
# Track frame offsets:
#	150
#	39742
#	55472
#	94215
#	159307
#	179380
#	214278
#	229868
#	239140
#	254525
#	264529
#	288478
#
# Disc length: 4028
#
# Revision: 2
# Processed by: cddbd v1.5.1PL0 Copyright (c) Steve Scherf et al.
# Submitted via: FreeRIP 2.30 
# Normalized: r0:TDELIM( - ),TSWAP
#
DISCID=ba0fba0c
DTITLE=Various Artist - The Spirit Of Woodstock
DYEAR=1999
DGENRE=Blues
TTITLE0=Jimi Hendrix - Voices
TTITLE1=Jimi Hendrix - Soul Four
TTITLE2=Santana - Persuasion
TTITLE3=Santana - Jin-Go-Lo-Ba
TTITLE4=Grateful Dead - Waether Report Suite
TTITLE5=Joe Cocker - St James Infirmary
TTITLE6=Crosby and Nash - Cowboy Of Dreams
TTITLE7=Canned Heat - Big Road Blues
TTITLE8=The Jefferson Airplane - Don`t Slip Away
TTITLE9=Joni Mitchell - Big Yellow Taxi
TTITLE10=Joni Mitchell - Woodstock
TTITLE11=Bob Dylan - California
EXTD=Music Brokers SRL
EXTT0=
EXTT1=
EXTT2=
EXTT3=
EXTT4=
EXTT5=
EXTT6=
EXTT7=
EXTT8=
EXTT9=
EXTT10=
EXTT11=
PLAYORDER=
